<?xml version="1.0" encoding="UTF-8" standalone="no"?>
<!-- Created with Inkscape (http://www.inkscape.org/) -->

<svg
   version="1.1"
   id="svg1"
   width="512"
   height="450.66666"
   viewBox="0 0 512 450.66666"
   sodipodi:docname="deformation11.eps"
   xmlns:inkscape="http://www.inkscape.org/namespaces/inkscape"
   xmlns:sodipodi="http://sodipodi.sourceforge.net/DTD/sodipodi-0.dtd"
   xmlns="http://www.w3.org/2000/svg"
   xmlns:svg="http://www.w3.org/2000/svg">
  <defs
     id="defs1">
    <clipPath
       clipPathUnits="userSpaceOnUse"
       id="clipPath95">
      <path
         d="M 450,450 H 3590 V 3130 H 450 Z"
         transform="translate(0,2.5000001e-5)"
         id="path95" />
    </clipPath>
    <clipPath
       clipPathUnits="userSpaceOnUse"
       id="clipPath97">
      <path
         d="M 450,450 H 3590 V 3130 H 450 Z"
         transform="translate(0,2.5000001e-5)"
         id="path97" />
    </clipPath>
    <clipPath
       clipPathUnits="userSpaceOnUse"
       id="clipPath99">
      <path
         d="M 450,450 H 3590 V 3130 H 450 Z"
         transform="translate(0,2.5000001e-5)"
         id="path99" />
    </clipPath>
    <clipPath
       clipPathUnits="userSpaceOnUse"
       id="clipPath101">
      <path
         d="M 450,450 H 3590 V 3130 H 450 Z"
         transform="translate(0,2.5000001e-5)"
         id="path101" />
    </clipPath>
    <clipPath
       clipPathUnits="userSpaceOnUse"
       id="clipPath103">
      <path
         d="M 450,450 H 3590 V 3130 H 450 Z"
         transform="translate(0,2.5000001e-5)"
         id="path103" />
    </clipPath>
    <clipPath
       clipPathUnits="userSpaceOnUse"
       id="clipPath105">
      <path
         d="M 450,450 H 3590 V 3130 H 450 Z"
         transform="translate(0,2.5000001e-5)"
         id="path105" />
    </clipPath>
    <clipPath
       clipPathUnits="userSpaceOnUse"
       id="clipPath107">
      <path
         d="M 450,450 H 3590 V 3130 H 450 Z"
         transform="translate(0,2.5000001e-5)"
         id="path107" />
    </clipPath>
    <clipPath
       clipPathUnits="userSpaceOnUse"
       id="clipPath109">
      <path
         d="M 450,450 H 3590 V 3130 H 450 Z"
         transform="translate(0,2.5000001e-5)"
         id="path109" />
    </clipPath>
    <clipPath
       clipPathUnits="userSpaceOnUse"
       id="clipPath111">
      <path
         d="M 450,450 H 3590 V 3130 H 450 Z"
         transform="translate(0,2.5000001e-5)"
         id="path111" />
    </clipPath>
    <clipPath
       clipPathUnits="userSpaceOnUse"
       id="clipPath113">
      <path
         d="M 450,450 H 3590 V 3130 H 450 Z"
         transform="translate(0,2.5000001e-5)"
         id="path113" />
    </clipPath>
    <clipPath
       clipPathUnits="userSpaceOnUse"
       id="clipPath115">
      <path
         d="M 450,450 H 3590 V 3130 H 450 Z"
         transform="translate(0,2.5000001e-5)"
         id="path115" />
    </clipPath>
    <clipPath
       clipPathUnits="userSpaceOnUse"
       id="clipPath117">
      <path
         d="M 450,450 H 3590 V 3130 H 450 Z"
         transform="translate(0,2.5000001e-5)"
         id="path117" />
    </clipPath>
    <clipPath
       clipPathUnits="userSpaceOnUse"
       id="clipPath119">
      <path
         d="M 450,450 H 3590 V 3130 H 450 Z"
         transform="translate(0,2.5000001e-5)"
         id="path119" />
    </clipPath>
    <clipPath
       clipPathUnits="userSpaceOnUse"
       id="clipPath121">
      <path
         d="M 450,450 H 3590 V 3130 H 450 Z"
         transform="translate(0,2.5000001e-5)"
         id="path121" />
    </clipPath>
    <clipPath
       clipPathUnits="userSpaceOnUse"
       id="clipPath123">
      <path
         d="M 450,450 H 3590 V 3130 H 450 Z"
         transform="translate(0,2.5000001e-5)"
         id="path123" />
    </clipPath>
    <clipPath
       clipPathUnits="userSpaceOnUse"
       id="clipPath125">
      <path
         d="M 450,450 H 3590 V 3130 H 450 Z"
         transform="translate(0,2.5000001e-5)"
         id="path125" />
    </clipPath>
    <clipPath
       clipPathUnits="userSpaceOnUse"
       id="clipPath127">
      <path
         d="M 450,450 H 3590 V 3130 H 450 Z"
         transform="translate(0,2.5000001e-5)"
         id="path127" />
    </clipPath>
    <clipPath
       clipPathUnits="userSpaceOnUse"
       id="clipPath129">
      <path
         d="M 450,450 H 3590 V 3130 H 450 Z"
         transform="translate(0,2.5000001e-5)"
         id="path129" />
    </clipPath>
    <clipPath
       clipPathUnits="userSpaceOnUse"
       id="clipPath131">
      <path
         d="M 450,450 H 3590 V 3130 H 450 Z"
         transform="translate(0,2.5000001e-5)"
         id="path131" />
    </clipPath>
  </defs>
  <sodipodi:namedview
     id="namedview1"
     pagecolor="#ffffff"
     bordercolor="#000000"
     borderopacity="0.25"
     inkscape:showpageshadow="2"
     inkscape:pageopacity="0.0"
     inkscape:pagecheckerboard="0"
     inkscape:deskcolor="#d1d1d1">
    <inkscape:page
       x="0"
       y="0"
       inkscape:label="1"
       id="page1"
       width="512"
       height="450.66666"
       margin="0"
       bleed="0" />
  </sodipodi:namedview>
  <g
     id="g1"
     inkscape:groupmode="layer"
     inkscape:label="1">
    <path
       id="path1"
       d="M 0,3380 H 3840 V 0 H 0 v 3380"
       style="fill:#efefff;fill-opacity:1;fill-rule:nonzero;stroke:none"
       transform="matrix(0.13333333,0,0,-0.13333333,0,450.66667)" />
    <path
       id="path2"
       d="M 450,3130 H 3590 V 450 H 450 v 2680"
       style="fill:#ffffff;fill-opacity:1;fill-rule:nonzero;stroke:none"
       transform="matrix(0.13333333,0,0,-0.13333333,0,450.66667)" />
    <path
       id="path3"
       d="m 450,460 h 50"
       style="fill:none;stroke:#000000;stroke-width:10;stroke-linecap:butt;stroke-linejoin:miter;stroke-miterlimit:10;stroke-dasharray:none;stroke-opacity:1"
       transform="matrix(0.13333333,0,0,-0.13333333,0,450.66667)" />
    <path
       id="path4"
       d="m 3580,460 h -40"
       style="fill:none;stroke:#000000;stroke-width:10;stroke-linecap:butt;stroke-linejoin:miter;stroke-miterlimit:10;stroke-dasharray:none;stroke-opacity:1"
       transform="matrix(0.13333333,0,0,-0.13333333,0,450.66667)" />
    <path
       id="path5"
       d="M 500,460 H 3540"
       style="fill:none;stroke:#c0c0c0;stroke-width:10;stroke-linecap:butt;stroke-linejoin:miter;stroke-miterlimit:10;stroke-dasharray:none;stroke-opacity:1"
       transform="matrix(0.13333333,0,0,-0.13333333,0,450.66667)" />
    <path
       id="path6"
       d="m 303.75,485.781 v 10.625 h 32.5 v -10.625 z m 41.211,-3.281 11.094,0.938 c 0.832,-5.418 2.707,-9.481 5.625,-12.188 3.019,-2.707 6.668,-4.062 10.937,-4.062 5,0 9.27,1.925 12.813,5.781 3.543,3.855 5.312,8.906 5.312,15.156 0,6.043 -1.719,10.781 -5.156,14.219 -3.332,3.543 -7.762,5.312 -13.281,5.312 -3.332,0 -6.407,-0.781 -9.219,-2.343 -2.707,-1.563 -4.844,-3.543 -6.406,-5.938 l -9.844,1.25 8.281,44.063 h 42.813 v -10 h -34.375 l -4.532,-23.125 c 5.106,3.644 10.469,5.468 16.094,5.468 7.5,0 13.801,-2.605 18.906,-7.812 5.207,-5.207 7.813,-11.926 7.813,-20.156 0,-7.708 -2.238,-14.426 -6.719,-20.157 -5.519,-6.875 -13.019,-10.312 -22.5,-10.312 -7.812,0 -14.219,2.187 -19.219,6.562 -4.894,4.375 -7.707,10.157 -8.437,17.344"
       style="fill:#000000;fill-opacity:1;fill-rule:nonzero;stroke:none"
       transform="matrix(0.13333333,0,0,-0.13333333,0,450.66667)" />
    <path
       id="path7"
       d="m 450,730 h 50"
       style="fill:none;stroke:#000000;stroke-width:10;stroke-linecap:butt;stroke-linejoin:miter;stroke-miterlimit:10;stroke-dasharray:none;stroke-opacity:1"
       transform="matrix(0.13333333,0,0,-0.13333333,0,450.66667)" />
    <path
       id="path8"
       d="m 3580,730 h -40"
       style="fill:none;stroke:#000000;stroke-width:10;stroke-linecap:butt;stroke-linejoin:miter;stroke-miterlimit:10;stroke-dasharray:none;stroke-opacity:1"
       transform="matrix(0.13333333,0,0,-0.13333333,0,450.66667)" />
    <path
       id="path9"
       d="M 500,730 H 3540"
       style="fill:none;stroke:#c0c0c0;stroke-width:10;stroke-linecap:butt;stroke-linejoin:miter;stroke-miterlimit:10;stroke-dasharray:none;stroke-opacity:1"
       transform="matrix(0.13333333,0,0,-0.13333333,0,450.66667)" />
    <path
       id="path10"
       d="m 303.75,715.781 v 10.625 h 32.5 V 715.781 Z M 378.711,690 v 20.625 h -37.188 v 9.688 l 39.219,55.625 h 8.594 v -55.625 h 11.562 v -9.688 H 389.336 V 690 Z m 0,30.313 v 38.593 l -26.875,-38.593 z"
       style="fill:#000000;fill-opacity:1;fill-rule:nonzero;stroke:none"
       transform="matrix(0.13333333,0,0,-0.13333333,0,450.66667)" />
    <path
       id="path11"
       d="m 450,1000 h 50"
       style="fill:none;stroke:#000000;stroke-width:10;stroke-linecap:butt;stroke-linejoin:miter;stroke-miterlimit:10;stroke-dasharray:none;stroke-opacity:1"
       transform="matrix(0.13333333,0,0,-0.13333333,0,450.66667)" />
    <path
       id="path12"
       d="m 3580,1000 h -40"
       style="fill:none;stroke:#000000;stroke-width:10;stroke-linecap:butt;stroke-linejoin:miter;stroke-miterlimit:10;stroke-dasharray:none;stroke-opacity:1"
       transform="matrix(0.13333333,0,0,-0.13333333,0,450.66667)" />
    <path
       id="path13"
       d="M 500,1000 H 3540"
       style="fill:none;stroke:#c0c0c0;stroke-width:10;stroke-linecap:butt;stroke-linejoin:miter;stroke-miterlimit:10;stroke-dasharray:none;stroke-opacity:1"
       transform="matrix(0.13333333,0,0,-0.13333333,0,450.66667)" />
    <path
       id="path14"
       d="m 303.75,985.781 v 10.625 h 32.5 v -10.625 z m 41.211,-3.125 10.625,1.407 c 1.144,-5.938 3.176,-10.262 6.094,-12.969 2.918,-2.606 6.457,-3.906 10.625,-3.906 5,0 9.218,1.718 12.656,5.156 3.437,3.437 5.156,7.707 5.156,12.812 0,4.793 -1.613,8.75 -4.844,11.875 -3.125,3.229 -7.136,4.849 -12.031,4.849 -1.98,0 -4.48,-0.42 -7.5,-1.25 l 1.25,9.37 c 0.731,-0.11 1.301,-0.16 1.719,-0.16 4.48,0 8.488,1.15 12.031,3.44 3.645,2.4 5.469,6.04 5.469,10.94 0,3.85 -1.301,7.03 -3.906,9.53 -2.606,2.61 -5.989,3.91 -10.157,3.91 -4.062,0 -7.5,-1.3 -10.312,-3.91 -2.707,-2.61 -4.426,-6.46 -5.156,-11.56 l -10.625,1.87 c 1.25,6.98 4.168,12.4 8.75,16.25 4.582,3.96 10.261,5.94 17.031,5.94 4.687,0 9.012,-1.04 12.969,-3.12 3.957,-1.99 6.98,-4.69 9.062,-8.13 2.082,-3.44 3.125,-7.14 3.125,-11.09 0,-3.65 -0.988,-7.03 -2.969,-10.16 -1.98,-3.02 -4.894,-5.42 -8.75,-7.19 5,-1.14 8.907,-3.59 11.719,-7.341 2.813,-3.645 4.219,-8.281 4.219,-13.906 0,-7.5 -2.762,-13.856 -8.281,-19.063 -5.418,-5.207 -12.293,-7.812 -20.625,-7.812 -7.5,0 -13.75,2.238 -18.75,6.718 -5,4.582 -7.864,10.418 -8.594,17.5"
       style="fill:#000000;fill-opacity:1;fill-rule:nonzero;stroke:none"
       transform="matrix(0.13333333,0,0,-0.13333333,0,450.66667)" />
    <path
       id="path15"
       d="m 450,1270 h 50"
       style="fill:none;stroke:#000000;stroke-width:10;stroke-linecap:butt;stroke-linejoin:miter;stroke-miterlimit:10;stroke-dasharray:none;stroke-opacity:1"
       transform="matrix(0.13333333,0,0,-0.13333333,0,450.66667)" />
    <path
       id="path16"
       d="m 3580,1270 h -40"
       style="fill:none;stroke:#000000;stroke-width:10;stroke-linecap:butt;stroke-linejoin:miter;stroke-miterlimit:10;stroke-dasharray:none;stroke-opacity:1"
       transform="matrix(0.13333333,0,0,-0.13333333,0,450.66667)" />
    <path
       id="path17"
       d="M 500,1270 H 3540"
       style="fill:none;stroke:#c0c0c0;stroke-width:10;stroke-linecap:butt;stroke-linejoin:miter;stroke-miterlimit:10;stroke-dasharray:none;stroke-opacity:1"
       transform="matrix(0.13333333,0,0,-0.13333333,0,450.66667)" />
    <path
       id="path18"
       d="m 303.75,1255.78 v 10.63 h 32.5 v -10.63 z m 96.68,-15.62 V 1230 h -56.875 c 0,2.5 0.418,4.95 1.25,7.34 1.457,3.86 3.75,7.66 6.875,11.41 3.23,3.75 7.863,8.07 13.906,12.97 9.375,7.71 15.676,13.8 18.906,18.28 3.332,4.48 5,8.7 5,12.66 0,4.16 -1.512,7.65 -4.531,10.47 -3.02,2.91 -6.926,4.37 -11.719,4.37 -5.105,0 -9.168,-1.51 -12.187,-4.53 -3.02,-3.02 -4.582,-7.24 -4.688,-12.66 l -10.781,1.1 c 0.73,8.12 3.488,14.27 8.281,18.43 4.895,4.27 11.457,6.41 19.688,6.41 8.23,0 14.738,-2.29 19.531,-6.87 4.793,-4.59 7.187,-10.27 7.187,-17.04 0,-3.43 -0.73,-6.82 -2.187,-10.15 -1.356,-3.23 -3.699,-6.72 -7.031,-10.47 -3.231,-3.65 -8.594,-8.65 -16.094,-15 -6.356,-5.31 -10.469,-8.96 -12.344,-10.94 -1.769,-1.87 -3.23,-3.75 -4.375,-5.62 h 42.188"
       style="fill:#000000;fill-opacity:1;fill-rule:nonzero;stroke:none"
       transform="matrix(0.13333333,0,0,-0.13333333,0,450.66667)" />
    <path
       id="path19"
       d="m 450,1530 h 50"
       style="fill:none;stroke:#000000;stroke-width:10;stroke-linecap:butt;stroke-linejoin:miter;stroke-miterlimit:10;stroke-dasharray:none;stroke-opacity:1"
       transform="matrix(0.13333333,0,0,-0.13333333,0,450.66667)" />
    <path
       id="path20"
       d="m 3580,1530 h -40"
       style="fill:none;stroke:#000000;stroke-width:10;stroke-linecap:butt;stroke-linejoin:miter;stroke-miterlimit:10;stroke-dasharray:none;stroke-opacity:1"
       transform="matrix(0.13333333,0,0,-0.13333333,0,450.66667)" />
    <path
       id="path21"
       d="M 500,1530 H 3540"
       style="fill:none;stroke:#c0c0c0;stroke-width:10;stroke-linecap:butt;stroke-linejoin:miter;stroke-miterlimit:10;stroke-dasharray:none;stroke-opacity:1"
       transform="matrix(0.13333333,0,0,-0.13333333,0,450.66667)" />
    <path
       id="path22"
       d="m 303.75,1515.78 v 10.63 h 32.5 v -10.63 z M 384.648,1490 H 374.18 v 67.19 c -2.606,-2.4 -5.989,-4.85 -10.157,-7.35 -4.062,-2.39 -7.707,-4.16 -10.937,-5.31 v 10.16 c 5.832,2.81 10.937,6.14 15.312,10 4.481,3.95 7.657,7.81 9.532,11.56 h 6.718 V 1490"
       style="fill:#000000;fill-opacity:1;fill-rule:nonzero;stroke:none"
       transform="matrix(0.13333333,0,0,-0.13333333,0,450.66667)" />
    <path
       id="path23"
       d="m 450,1800 h 50"
       style="fill:none;stroke:#000000;stroke-width:10;stroke-linecap:butt;stroke-linejoin:miter;stroke-miterlimit:10;stroke-dasharray:none;stroke-opacity:1"
       transform="matrix(0.13333333,0,0,-0.13333333,0,450.66667)" />
    <path
       id="path24"
       d="m 3580,1800 h -40"
       style="fill:none;stroke:#000000;stroke-width:10;stroke-linecap:butt;stroke-linejoin:miter;stroke-miterlimit:10;stroke-dasharray:none;stroke-opacity:1"
       transform="matrix(0.13333333,0,0,-0.13333333,0,450.66667)" />
    <path
       id="path25"
       d="M 500,1800 H 3540"
       style="fill:none;stroke:#c0c0c0;stroke-width:10;stroke-linecap:butt;stroke-linejoin:miter;stroke-miterlimit:10;stroke-dasharray:none;stroke-opacity:1"
       transform="matrix(0.13333333,0,0,-0.13333333,0,450.66667)" />
    <path
       id="path26"
       d="m 345,1802.34 c 0,10.21 1.043,18.39 3.125,24.54 2.082,6.25 5.156,11.04 9.219,14.37 4.168,3.33 9.375,5 15.625,5 4.582,0 8.594,-0.94 12.031,-2.81 3.543,-1.88 6.457,-4.58 8.75,-8.13 2.293,-3.43 4.063,-7.65 5.313,-12.65 1.25,-5 1.875,-11.77 1.875,-20.32 0,-10.1 -1.043,-18.23 -3.125,-24.37 -1.981,-6.15 -5.051,-10.94 -9.219,-14.38 -4.063,-3.33 -9.27,-5 -15.625,-5 -8.231,0 -14.739,2.97 -19.531,8.91 -5.625,7.08 -8.438,18.7 -8.438,34.84 z m 10.781,0 c 0,-14.06 1.668,-23.43 5,-28.12 3.332,-4.69 7.395,-7.03 12.188,-7.03 4.894,0 8.957,2.34 12.187,7.03 3.332,4.69 5,14.06 5,28.12 0,14.17 -1.668,23.55 -5,28.13 -3.23,4.69 -7.343,7.03 -12.343,7.03 -4.793,0 -8.645,-2.03 -11.563,-6.09 -3.645,-5.21 -5.469,-14.9 -5.469,-29.07"
       style="fill:#000000;fill-opacity:1;fill-rule:nonzero;stroke:none"
       transform="matrix(0.13333333,0,0,-0.13333333,0,450.66667)" />
    <path
       id="path27"
       d="m 450,2070 h 50"
       style="fill:none;stroke:#000000;stroke-width:10;stroke-linecap:butt;stroke-linejoin:miter;stroke-miterlimit:10;stroke-dasharray:none;stroke-opacity:1"
       transform="matrix(0.13333333,0,0,-0.13333333,0,450.66667)" />
    <path
       id="path28"
       d="m 3580,2070 h -40"
       style="fill:none;stroke:#000000;stroke-width:10;stroke-linecap:butt;stroke-linejoin:miter;stroke-miterlimit:10;stroke-dasharray:none;stroke-opacity:1"
       transform="matrix(0.13333333,0,0,-0.13333333,0,450.66667)" />
    <path
       id="path29"
       d="M 500,2070 H 3540"
       style="fill:none;stroke:#c0c0c0;stroke-width:10;stroke-linecap:butt;stroke-linejoin:miter;stroke-miterlimit:10;stroke-dasharray:none;stroke-opacity:1"
       transform="matrix(0.13333333,0,0,-0.13333333,0,450.66667)" />
    <path
       id="path30"
       d="m 384.688,2030 h -10.469 v 67.19 c -2.606,-2.4 -5.989,-4.85 -10.156,-7.35 -4.063,-2.39 -7.708,-4.16 -10.938,-5.31 v 10.16 c 5.832,2.81 10.938,6.14 15.313,10 4.48,3.95 7.656,7.81 9.531,11.56 h 6.719 V 2030"
       style="fill:#000000;fill-opacity:1;fill-rule:nonzero;stroke:none"
       transform="matrix(0.13333333,0,0,-0.13333333,0,450.66667)" />
    <path
       id="path31"
       d="m 450,2330 h 50"
       style="fill:none;stroke:#000000;stroke-width:10;stroke-linecap:butt;stroke-linejoin:miter;stroke-miterlimit:10;stroke-dasharray:none;stroke-opacity:1"
       transform="matrix(0.13333333,0,0,-0.13333333,0,450.66667)" />
    <path
       id="path32"
       d="m 3580,2330 h -40"
       style="fill:none;stroke:#000000;stroke-width:10;stroke-linecap:butt;stroke-linejoin:miter;stroke-miterlimit:10;stroke-dasharray:none;stroke-opacity:1"
       transform="matrix(0.13333333,0,0,-0.13333333,0,450.66667)" />
    <path
       id="path33"
       d="M 500,2330 H 3540"
       style="fill:none;stroke:#c0c0c0;stroke-width:10;stroke-linecap:butt;stroke-linejoin:miter;stroke-miterlimit:10;stroke-dasharray:none;stroke-opacity:1"
       transform="matrix(0.13333333,0,0,-0.13333333,0,450.66667)" />
    <path
       id="path34"
       d="M 400.469,2300.16 V 2290 h -56.875 c 0,2.5 0.418,4.95 1.25,7.34 1.457,3.86 3.75,7.66 6.875,11.41 3.23,3.75 7.863,8.07 13.906,12.97 9.375,7.71 15.676,13.8 18.906,18.28 3.332,4.48 5,8.7 5,12.66 0,4.16 -1.511,7.65 -4.531,10.47 -3.02,2.91 -6.926,4.37 -11.719,4.37 -5.105,0 -9.168,-1.51 -12.187,-4.53 -3.02,-3.02 -4.582,-7.24 -4.688,-12.66 l -10.781,1.1 c 0.73,8.12 3.488,14.27 8.281,18.43 4.895,4.27 11.457,6.41 19.688,6.41 8.23,0 14.738,-2.29 19.531,-6.87 4.793,-4.59 7.188,-10.27 7.188,-17.04 0,-3.43 -0.731,-6.82 -2.188,-10.15 -1.355,-3.23 -3.699,-6.72 -7.031,-10.47 -3.231,-3.65 -8.594,-8.65 -16.094,-15 -6.355,-5.31 -10.469,-8.96 -12.344,-10.94 -1.769,-1.87 -3.23,-3.75 -4.375,-5.62 h 42.188"
       style="fill:#000000;fill-opacity:1;fill-rule:nonzero;stroke:none"
       transform="matrix(0.13333333,0,0,-0.13333333,0,450.66667)" />
    <path
       id="path35"
       d="m 450,2600 h 50"
       style="fill:none;stroke:#000000;stroke-width:10;stroke-linecap:butt;stroke-linejoin:miter;stroke-miterlimit:10;stroke-dasharray:none;stroke-opacity:1"
       transform="matrix(0.13333333,0,0,-0.13333333,0,450.66667)" />
    <path
       id="path36"
       d="m 3580,2600 h -40"
       style="fill:none;stroke:#000000;stroke-width:10;stroke-linecap:butt;stroke-linejoin:miter;stroke-miterlimit:10;stroke-dasharray:none;stroke-opacity:1"
       transform="matrix(0.13333333,0,0,-0.13333333,0,450.66667)" />
    <path
       id="path37"
       d="M 500,2600 H 3540"
       style="fill:none;stroke:#c0c0c0;stroke-width:10;stroke-linecap:butt;stroke-linejoin:miter;stroke-miterlimit:10;stroke-dasharray:none;stroke-opacity:1"
       transform="matrix(0.13333333,0,0,-0.13333333,0,450.66667)" />
    <path
       id="path38"
       d="m 345,2582.66 10.625,1.4 c 1.145,-5.93 3.176,-10.26 6.094,-12.97 2.918,-2.6 6.457,-3.9 10.625,-3.9 5,0 9.219,1.72 12.656,5.15 3.438,3.44 5.156,7.71 5.156,12.82 0,4.79 -1.613,8.75 -4.843,11.87 -3.125,3.23 -7.137,4.85 -12.032,4.85 -1.98,0 -4.48,-0.42 -7.5,-1.25 l 1.25,9.37 c 0.731,-0.11 1.301,-0.16 1.719,-0.16 4.48,0 8.488,1.15 12.031,3.44 3.645,2.4 5.469,6.04 5.469,10.94 0,3.85 -1.301,7.03 -3.906,9.53 -2.606,2.61 -5.989,3.91 -10.156,3.91 -4.063,0 -7.5,-1.3 -10.313,-3.91 -2.707,-2.61 -4.426,-6.46 -5.156,-11.56 l -10.625,1.87 c 1.25,6.98 4.168,12.4 8.75,16.25 4.582,3.96 10.261,5.94 17.031,5.94 4.688,0 9.012,-1.04 12.969,-3.12 3.957,-1.99 6.98,-4.69 9.062,-8.13 2.082,-3.44 3.125,-7.14 3.125,-11.09 0,-3.65 -0.988,-7.03 -2.968,-10.16 -1.981,-3.02 -4.895,-5.42 -8.75,-7.19 5,-1.14 8.906,-3.59 11.718,-7.34 2.813,-3.65 4.219,-8.28 4.219,-13.91 0,-7.5 -2.762,-13.85 -8.281,-19.06 -5.418,-5.21 -12.293,-7.81 -20.625,-7.81 -7.5,0 -13.75,2.24 -18.75,6.72 -5,4.58 -7.864,10.41 -8.594,17.5"
       style="fill:#000000;fill-opacity:1;fill-rule:nonzero;stroke:none"
       transform="matrix(0.13333333,0,0,-0.13333333,0,450.66667)" />
    <path
       id="path39"
       d="m 450,2870 h 50"
       style="fill:none;stroke:#000000;stroke-width:10;stroke-linecap:butt;stroke-linejoin:miter;stroke-miterlimit:10;stroke-dasharray:none;stroke-opacity:1"
       transform="matrix(0.13333333,0,0,-0.13333333,0,450.66667)" />
    <path
       id="path40"
       d="m 3580,2870 h -40"
       style="fill:none;stroke:#000000;stroke-width:10;stroke-linecap:butt;stroke-linejoin:miter;stroke-miterlimit:10;stroke-dasharray:none;stroke-opacity:1"
       transform="matrix(0.13333333,0,0,-0.13333333,0,450.66667)" />
    <path
       id="path41"
       d="M 500,2870 H 3540"
       style="fill:none;stroke:#c0c0c0;stroke-width:10;stroke-linecap:butt;stroke-linejoin:miter;stroke-miterlimit:10;stroke-dasharray:none;stroke-opacity:1"
       transform="matrix(0.13333333,0,0,-0.13333333,0,450.66667)" />
    <path
       id="path42"
       d="m 378.75,2830 v 20.63 h -37.187 v 9.68 l 39.218,55.63 h 8.594 v -55.63 h 11.563 v -9.68 H 389.375 V 2830 Z m 0,30.31 v 38.6 l -26.875,-38.6 z"
       style="fill:#000000;fill-opacity:1;fill-rule:nonzero;stroke:none"
       transform="matrix(0.13333333,0,0,-0.13333333,0,450.66667)" />
    <path
       id="path43"
       d="m 450,3130 h 50"
       style="fill:none;stroke:#000000;stroke-width:10;stroke-linecap:butt;stroke-linejoin:miter;stroke-miterlimit:10;stroke-dasharray:none;stroke-opacity:1"
       transform="matrix(0.13333333,0,0,-0.13333333,0,450.66667)" />
    <path
       id="path44"
       d="m 3580,3130 h -40"
       style="fill:none;stroke:#000000;stroke-width:10;stroke-linecap:butt;stroke-linejoin:miter;stroke-miterlimit:10;stroke-dasharray:none;stroke-opacity:1"
       transform="matrix(0.13333333,0,0,-0.13333333,0,450.66667)" />
    <path
       id="path45"
       d="M 500,3130 H 3540"
       style="fill:none;stroke:#c0c0c0;stroke-width:10;stroke-linecap:butt;stroke-linejoin:miter;stroke-miterlimit:10;stroke-dasharray:none;stroke-opacity:1"
       transform="matrix(0.13333333,0,0,-0.13333333,0,450.66667)" />
    <path
       id="path46"
       d="m 345,3112.5 11.094,0.94 c 0.832,-5.42 2.707,-9.48 5.625,-12.19 3.019,-2.71 6.668,-4.06 10.937,-4.06 5,0 9.27,1.92 12.813,5.78 3.543,3.85 5.312,8.91 5.312,15.16 0,6.04 -1.718,10.78 -5.156,14.21 -3.332,3.55 -7.762,5.32 -13.281,5.32 -3.332,0 -6.406,-0.78 -9.219,-2.35 -2.707,-1.56 -4.844,-3.54 -6.406,-5.93 l -9.844,1.25 8.281,44.06 h 42.813 v -10 h -34.375 l -4.531,-23.13 c 5.105,3.65 10.468,5.47 16.093,5.47 7.5,0 13.801,-2.6 18.907,-7.81 5.207,-5.21 7.812,-11.93 7.812,-20.16 0,-7.7 -2.238,-14.42 -6.719,-20.15 -5.519,-6.88 -13.019,-10.32 -22.5,-10.32 -7.812,0 -14.218,2.19 -19.218,6.57 -4.895,4.37 -7.708,10.15 -8.438,17.34"
       style="fill:#000000;fill-opacity:1;fill-rule:nonzero;stroke:none"
       transform="matrix(0.13333333,0,0,-0.13333333,0,450.66667)" />
    <path
       id="path47"
       d="m 680,3130 v -50"
       style="fill:none;stroke:#000000;stroke-width:10;stroke-linecap:butt;stroke-linejoin:miter;stroke-miterlimit:10;stroke-dasharray:none;stroke-opacity:1"
       transform="matrix(0.13333333,0,0,-0.13333333,0,450.66667)" />
    <path
       id="path48"
       d="m 680,460 v 40"
       style="fill:none;stroke:#000000;stroke-width:10;stroke-linecap:butt;stroke-linejoin:miter;stroke-miterlimit:10;stroke-dasharray:none;stroke-opacity:1"
       transform="matrix(0.13333333,0,0,-0.13333333,0,450.66667)" />
    <path
       id="path49"
       d="M 680,3080 V 500"
       style="fill:none;stroke:#c0c0c0;stroke-width:10;stroke-linecap:butt;stroke-linejoin:miter;stroke-miterlimit:10;stroke-dasharray:none;stroke-opacity:1"
       transform="matrix(0.13333333,0,0,-0.13333333,0,450.66667)" />
    <path
       id="path50"
       d="m 633.75,285.781 v 10.625 h 32.5 v -10.625 z m 41.211,-3.281 11.094,0.938 c 0.832,-5.418 2.707,-9.481 5.625,-12.188 3.019,-2.707 6.668,-4.062 10.937,-4.062 5,0 9.27,1.925 12.813,5.781 3.543,3.855 5.312,8.906 5.312,15.156 0,6.043 -1.719,10.781 -5.156,14.219 -3.332,3.543 -7.762,5.312 -13.281,5.312 -3.332,0 -6.407,-0.781 -9.219,-2.343 -2.707,-1.563 -4.844,-3.543 -6.406,-5.938 l -9.844,1.25 8.281,44.063 h 42.813 v -10 h -34.375 l -4.532,-23.125 c 5.106,3.644 10.469,5.468 16.094,5.468 7.5,0 13.801,-2.605 18.906,-7.812 5.207,-5.207 7.813,-11.926 7.813,-20.156 0,-7.708 -2.238,-14.426 -6.719,-20.157 -5.519,-6.875 -13.019,-10.312 -22.5,-10.312 -7.812,0 -14.219,2.187 -19.219,6.562 -4.894,4.375 -7.707,10.157 -8.437,17.344"
       style="fill:#000000;fill-opacity:1;fill-rule:nonzero;stroke:none"
       transform="matrix(0.13333333,0,0,-0.13333333,0,450.66667)" />
    <path
       id="path51"
       d="m 940,3130 v -50"
       style="fill:none;stroke:#000000;stroke-width:10;stroke-linecap:butt;stroke-linejoin:miter;stroke-miterlimit:10;stroke-dasharray:none;stroke-opacity:1"
       transform="matrix(0.13333333,0,0,-0.13333333,0,450.66667)" />
    <path
       id="path52"
       d="m 940,460 v 40"
       style="fill:none;stroke:#000000;stroke-width:10;stroke-linecap:butt;stroke-linejoin:miter;stroke-miterlimit:10;stroke-dasharray:none;stroke-opacity:1"
       transform="matrix(0.13333333,0,0,-0.13333333,0,450.66667)" />
    <path
       id="path53"
       d="M 940,3080 V 500"
       style="fill:none;stroke:#c0c0c0;stroke-width:10;stroke-linecap:butt;stroke-linejoin:miter;stroke-miterlimit:10;stroke-dasharray:none;stroke-opacity:1"
       transform="matrix(0.13333333,0,0,-0.13333333,0,450.66667)" />
    <path
       id="path54"
       d="m 893.75,285.781 v 10.625 h 32.5 V 285.781 Z M 968.711,260 v 20.625 h -37.188 v 9.688 l 39.219,55.625 h 8.594 v -55.625 h 11.562 v -9.688 H 979.336 V 260 Z m 0,30.313 v 38.593 l -26.875,-38.593 z"
       style="fill:#000000;fill-opacity:1;fill-rule:nonzero;stroke:none"
       transform="matrix(0.13333333,0,0,-0.13333333,0,450.66667)" />
    <path
       id="path55"
       d="m 1210,3130 v -50"
       style="fill:none;stroke:#000000;stroke-width:10;stroke-linecap:butt;stroke-linejoin:miter;stroke-miterlimit:10;stroke-dasharray:none;stroke-opacity:1"
       transform="matrix(0.13333333,0,0,-0.13333333,0,450.66667)" />
    <path
       id="path56"
       d="m 1210,460 v 40"
       style="fill:none;stroke:#000000;stroke-width:10;stroke-linecap:butt;stroke-linejoin:miter;stroke-miterlimit:10;stroke-dasharray:none;stroke-opacity:1"
       transform="matrix(0.13333333,0,0,-0.13333333,0,450.66667)" />
    <path
       id="path57"
       d="M 1210,3080 V 500"
       style="fill:none;stroke:#c0c0c0;stroke-width:10;stroke-linecap:butt;stroke-linejoin:miter;stroke-miterlimit:10;stroke-dasharray:none;stroke-opacity:1"
       transform="matrix(0.13333333,0,0,-0.13333333,0,450.66667)" />
    <path
       id="path58"
       d="m 1163.75,285.781 v 10.625 h 32.5 v -10.625 z m 41.21,-3.125 10.63,1.407 c 1.14,-5.938 3.17,-10.262 6.09,-12.969 2.92,-2.606 6.46,-3.906 10.62,-3.906 5,0 9.22,1.718 12.66,5.156 3.44,3.437 5.16,7.707 5.16,12.812 0,4.793 -1.62,8.75 -4.85,11.875 -3.12,3.231 -7.13,4.844 -12.03,4.844 -1.98,0 -4.48,-0.418 -7.5,-1.25 l 1.25,9.375 c 0.73,-0.105 1.3,-0.156 1.72,-0.156 4.48,0 8.49,1.144 12.03,3.437 3.65,2.395 5.47,6.043 5.47,10.938 0,3.855 -1.3,7.031 -3.91,9.531 -2.6,2.605 -5.98,3.906 -10.15,3.906 -4.06,0 -7.5,-1.301 -10.31,-3.906 -2.71,-2.605 -4.43,-6.457 -5.16,-11.562 l -10.63,1.875 c 1.25,6.98 4.17,12.394 8.75,16.25 4.59,3.957 10.27,5.937 17.04,5.937 4.68,0 9.01,-1.043 12.96,-3.125 3.96,-1.98 6.99,-4.687 9.07,-8.125 2.08,-3.437 3.12,-7.137 3.12,-11.094 0,-3.644 -0.99,-7.031 -2.97,-10.156 -1.98,-3.02 -4.89,-5.418 -8.75,-7.187 5,-1.145 8.91,-3.594 11.72,-7.344 2.81,-3.645 4.22,-8.281 4.22,-13.906 0,-7.5 -2.76,-13.856 -8.28,-19.063 -5.42,-5.207 -12.29,-7.812 -20.63,-7.812 -7.5,0 -13.75,2.238 -18.75,6.718 -5,4.582 -7.86,10.418 -8.59,17.5"
       style="fill:#000000;fill-opacity:1;fill-rule:nonzero;stroke:none"
       transform="matrix(0.13333333,0,0,-0.13333333,0,450.66667)" />
    <path
       id="path59"
       d="m 1480,3130 v -50"
       style="fill:none;stroke:#000000;stroke-width:10;stroke-linecap:butt;stroke-linejoin:miter;stroke-miterlimit:10;stroke-dasharray:none;stroke-opacity:1"
       transform="matrix(0.13333333,0,0,-0.13333333,0,450.66667)" />
    <path
       id="path60"
       d="m 1480,460 v 40"
       style="fill:none;stroke:#000000;stroke-width:10;stroke-linecap:butt;stroke-linejoin:miter;stroke-miterlimit:10;stroke-dasharray:none;stroke-opacity:1"
       transform="matrix(0.13333333,0,0,-0.13333333,0,450.66667)" />
    <path
       id="path61"
       d="M 1480,3080 V 500"
       style="fill:none;stroke:#c0c0c0;stroke-width:10;stroke-linecap:butt;stroke-linejoin:miter;stroke-miterlimit:10;stroke-dasharray:none;stroke-opacity:1"
       transform="matrix(0.13333333,0,0,-0.13333333,0,450.66667)" />
    <path
       id="path62"
       d="m 1433.75,285.781 v 10.625 h 32.5 v -10.625 z m 96.68,-15.625 V 260 h -56.88 c 0,2.5 0.42,4.949 1.25,7.344 1.46,3.855 3.75,7.656 6.88,11.406 3.23,3.75 7.86,8.074 13.91,12.969 9.37,7.707 15.67,13.801 18.9,18.281 3.33,4.48 5,8.699 5,12.656 0,4.168 -1.51,7.657 -4.53,10.469 -3.02,2.918 -6.92,4.375 -11.72,4.375 -5.1,0 -9.17,-1.512 -12.19,-4.531 -3.01,-3.02 -4.58,-7.239 -4.68,-12.656 l -10.78,1.093 c 0.73,8.125 3.48,14.27 8.28,18.438 4.89,4.269 11.45,6.406 19.68,6.406 8.24,0 14.74,-2.293 19.54,-6.875 4.79,-4.582 7.18,-10.262 7.18,-17.031 0,-3.438 -0.73,-6.824 -2.18,-10.156 -1.36,-3.231 -3.7,-6.719 -7.04,-10.469 -3.23,-3.645 -8.59,-8.645 -16.09,-15 -6.35,-5.313 -10.47,-8.957 -12.34,-10.938 -1.77,-1.875 -3.23,-3.75 -4.38,-5.625 h 42.19"
       style="fill:#000000;fill-opacity:1;fill-rule:nonzero;stroke:none"
       transform="matrix(0.13333333,0,0,-0.13333333,0,450.66667)" />
    <path
       id="path63"
       d="m 1740,3130 v -50"
       style="fill:none;stroke:#000000;stroke-width:10;stroke-linecap:butt;stroke-linejoin:miter;stroke-miterlimit:10;stroke-dasharray:none;stroke-opacity:1"
       transform="matrix(0.13333333,0,0,-0.13333333,0,450.66667)" />
    <path
       id="path64"
       d="m 1740,460 v 40"
       style="fill:none;stroke:#000000;stroke-width:10;stroke-linecap:butt;stroke-linejoin:miter;stroke-miterlimit:10;stroke-dasharray:none;stroke-opacity:1"
       transform="matrix(0.13333333,0,0,-0.13333333,0,450.66667)" />
    <path
       id="path65"
       d="M 1740,3080 V 500"
       style="fill:none;stroke:#c0c0c0;stroke-width:10;stroke-linecap:butt;stroke-linejoin:miter;stroke-miterlimit:10;stroke-dasharray:none;stroke-opacity:1"
       transform="matrix(0.13333333,0,0,-0.13333333,0,450.66667)" />
    <path
       id="path66"
       d="m 1693.75,285.781 v 10.625 h 32.5 V 285.781 Z M 1774.65,260 h -10.47 v 67.188 c -2.61,-2.395 -5.99,-4.844 -10.16,-7.344 -4.06,-2.395 -7.7,-4.168 -10.93,-5.313 v 10.157 c 5.83,2.812 10.93,6.144 15.31,10 4.48,3.957 7.65,7.812 9.53,11.562 h 6.72 V 260"
       style="fill:#000000;fill-opacity:1;fill-rule:nonzero;stroke:none"
       transform="matrix(0.13333333,0,0,-0.13333333,0,450.66667)" />
    <path
       id="path67"
       d="m 2010,3130 v -50"
       style="fill:none;stroke:#000000;stroke-width:10;stroke-linecap:butt;stroke-linejoin:miter;stroke-miterlimit:10;stroke-dasharray:none;stroke-opacity:1"
       transform="matrix(0.13333333,0,0,-0.13333333,0,450.66667)" />
    <path
       id="path68"
       d="m 2010,460 v 40"
       style="fill:none;stroke:#000000;stroke-width:10;stroke-linecap:butt;stroke-linejoin:miter;stroke-miterlimit:10;stroke-dasharray:none;stroke-opacity:1"
       transform="matrix(0.13333333,0,0,-0.13333333,0,450.66667)" />
    <path
       id="path69"
       d="M 2010,3080 V 500"
       style="fill:none;stroke:#c0c0c0;stroke-width:10;stroke-linecap:butt;stroke-linejoin:miter;stroke-miterlimit:10;stroke-dasharray:none;stroke-opacity:1"
       transform="matrix(0.13333333,0,0,-0.13333333,0,450.66667)" />
    <path
       id="path70"
       d="m 1985,302.344 c 0,10.207 1.04,18.386 3.13,24.531 2.08,6.25 5.15,11.043 9.21,14.375 4.17,3.332 9.38,5 15.63,5 4.58,0 8.59,-0.937 12.03,-2.812 3.54,-1.875 6.46,-4.583 8.75,-8.125 2.29,-3.438 4.06,-7.657 5.31,-12.657 1.25,-5 1.88,-11.769 1.88,-20.312 0,-10.106 -1.05,-18.231 -3.13,-24.375 -1.98,-6.145 -5.05,-10.938 -9.22,-14.375 -4.06,-3.332 -9.27,-5 -15.62,-5 -8.23,0 -14.74,2.969 -19.53,8.906 -5.63,7.082 -8.44,18.699 -8.44,34.844 z m 10.78,0 c 0,-14.063 1.67,-23.438 5,-28.125 3.33,-4.688 7.4,-7.031 12.19,-7.031 4.89,0 8.96,2.343 12.19,7.031 3.33,4.687 5,14.062 5,28.125 0,14.168 -1.67,23.543 -5,28.125 -3.23,4.687 -7.35,7.031 -12.35,7.031 -4.79,0 -8.64,-2.031 -11.56,-6.094 -3.64,-5.207 -5.47,-14.894 -5.47,-29.062"
       style="fill:#000000;fill-opacity:1;fill-rule:nonzero;stroke:none"
       transform="matrix(0.13333333,0,0,-0.13333333,0,450.66667)" />
    <path
       id="path71"
       d="m 2280,3130 v -50"
       style="fill:none;stroke:#000000;stroke-width:10;stroke-linecap:butt;stroke-linejoin:miter;stroke-miterlimit:10;stroke-dasharray:none;stroke-opacity:1"
       transform="matrix(0.13333333,0,0,-0.13333333,0,450.66667)" />
    <path
       id="path72"
       d="m 2280,460 v 40"
       style="fill:none;stroke:#000000;stroke-width:10;stroke-linecap:butt;stroke-linejoin:miter;stroke-miterlimit:10;stroke-dasharray:none;stroke-opacity:1"
       transform="matrix(0.13333333,0,0,-0.13333333,0,450.66667)" />
    <path
       id="path73"
       d="M 2280,3080 V 500"
       style="fill:none;stroke:#c0c0c0;stroke-width:10;stroke-linecap:butt;stroke-linejoin:miter;stroke-miterlimit:10;stroke-dasharray:none;stroke-opacity:1"
       transform="matrix(0.13333333,0,0,-0.13333333,0,450.66667)" />
    <path
       id="path74"
       d="m 2294.69,260 h -10.47 v 67.188 c -2.61,-2.395 -5.99,-4.844 -10.16,-7.344 -4.06,-2.395 -7.7,-4.168 -10.93,-5.313 v 10.157 c 5.83,2.812 10.93,6.144 15.31,10 4.48,3.957 7.65,7.812 9.53,11.562 h 6.72 V 260"
       style="fill:#000000;fill-opacity:1;fill-rule:nonzero;stroke:none"
       transform="matrix(0.13333333,0,0,-0.13333333,0,450.66667)" />
    <path
       id="path75"
       d="m 2540,3130 v -50"
       style="fill:none;stroke:#000000;stroke-width:10;stroke-linecap:butt;stroke-linejoin:miter;stroke-miterlimit:10;stroke-dasharray:none;stroke-opacity:1"
       transform="matrix(0.13333333,0,0,-0.13333333,0,450.66667)" />
    <path
       id="path76"
       d="m 2540,460 v 40"
       style="fill:none;stroke:#000000;stroke-width:10;stroke-linecap:butt;stroke-linejoin:miter;stroke-miterlimit:10;stroke-dasharray:none;stroke-opacity:1"
       transform="matrix(0.13333333,0,0,-0.13333333,0,450.66667)" />
    <path
       id="path77"
       d="M 2540,3080 V 500"
       style="fill:none;stroke:#c0c0c0;stroke-width:10;stroke-linecap:butt;stroke-linejoin:miter;stroke-miterlimit:10;stroke-dasharray:none;stroke-opacity:1"
       transform="matrix(0.13333333,0,0,-0.13333333,0,450.66667)" />
    <path
       id="path78"
       d="M 2570.47,270.156 V 260 h -56.88 c 0,2.5 0.42,4.949 1.25,7.344 1.46,3.855 3.75,7.656 6.88,11.406 3.23,3.75 7.86,8.074 13.91,12.969 9.37,7.707 15.67,13.801 18.9,18.281 3.33,4.48 5,8.699 5,12.656 0,4.168 -1.51,7.657 -4.53,10.469 -3.02,2.918 -6.93,4.375 -11.72,4.375 -5.1,0 -9.17,-1.512 -12.19,-4.531 -3.02,-3.02 -4.58,-7.239 -4.68,-12.656 l -10.78,1.093 c 0.73,8.125 3.48,14.27 8.28,18.438 4.89,4.269 11.45,6.406 19.68,6.406 8.23,0 14.74,-2.293 19.54,-6.875 4.79,-4.582 7.18,-10.262 7.18,-17.031 0,-3.438 -0.73,-6.824 -2.18,-10.156 -1.36,-3.231 -3.7,-6.719 -7.04,-10.469 -3.23,-3.645 -8.59,-8.645 -16.09,-15 -6.36,-5.313 -10.47,-8.957 -12.34,-10.938 -1.77,-1.875 -3.23,-3.75 -4.38,-5.625 h 42.19"
       style="fill:#000000;fill-opacity:1;fill-rule:nonzero;stroke:none"
       transform="matrix(0.13333333,0,0,-0.13333333,0,450.66667)" />
    <path
       id="path79"
       d="m 2810,3130 v -50"
       style="fill:none;stroke:#000000;stroke-width:10;stroke-linecap:butt;stroke-linejoin:miter;stroke-miterlimit:10;stroke-dasharray:none;stroke-opacity:1"
       transform="matrix(0.13333333,0,0,-0.13333333,0,450.66667)" />
    <path
       id="path80"
       d="m 2810,460 v 40"
       style="fill:none;stroke:#000000;stroke-width:10;stroke-linecap:butt;stroke-linejoin:miter;stroke-miterlimit:10;stroke-dasharray:none;stroke-opacity:1"
       transform="matrix(0.13333333,0,0,-0.13333333,0,450.66667)" />
    <path
       id="path81"
       d="M 2810,3080 V 500"
       style="fill:none;stroke:#c0c0c0;stroke-width:10;stroke-linecap:butt;stroke-linejoin:miter;stroke-miterlimit:10;stroke-dasharray:none;stroke-opacity:1"
       transform="matrix(0.13333333,0,0,-0.13333333,0,450.66667)" />
    <path
       id="path82"
       d="m 2785,282.656 10.63,1.407 c 1.14,-5.938 3.17,-10.262 6.09,-12.969 2.92,-2.606 6.46,-3.906 10.62,-3.906 5,0 9.22,1.718 12.66,5.156 3.44,3.437 5.16,7.707 5.16,12.812 0,4.793 -1.62,8.75 -4.85,11.875 -3.12,3.231 -7.13,4.844 -12.03,4.844 -1.98,0 -4.48,-0.418 -7.5,-1.25 l 1.25,9.375 c 0.73,-0.105 1.3,-0.156 1.72,-0.156 4.48,0 8.49,1.144 12.03,3.437 3.65,2.395 5.47,6.043 5.47,10.938 0,3.855 -1.3,7.031 -3.91,9.531 -2.6,2.605 -5.98,3.906 -10.15,3.906 -4.06,0 -7.5,-1.301 -10.31,-3.906 -2.71,-2.605 -4.43,-6.457 -5.16,-11.562 l -10.63,1.875 c 1.25,6.98 4.17,12.394 8.75,16.25 4.59,3.957 10.27,5.937 17.04,5.937 4.68,0 9.01,-1.043 12.96,-3.125 3.96,-1.98 6.98,-4.687 9.07,-8.125 2.08,-3.437 3.12,-7.137 3.12,-11.094 0,-3.644 -0.99,-7.031 -2.97,-10.156 -1.98,-3.02 -4.89,-5.418 -8.75,-7.187 5,-1.145 8.91,-3.594 11.72,-7.344 2.81,-3.645 4.22,-8.281 4.22,-13.906 0,-7.5 -2.76,-13.856 -8.28,-19.063 -5.42,-5.207 -12.29,-7.812 -20.63,-7.812 -7.5,0 -13.75,2.238 -18.75,6.718 -5,4.582 -7.86,10.418 -8.59,17.5"
       style="fill:#000000;fill-opacity:1;fill-rule:nonzero;stroke:none"
       transform="matrix(0.13333333,0,0,-0.13333333,0,450.66667)" />
    <path
       id="path83"
       d="m 3080,3130 v -50"
       style="fill:none;stroke:#000000;stroke-width:10;stroke-linecap:butt;stroke-linejoin:miter;stroke-miterlimit:10;stroke-dasharray:none;stroke-opacity:1"
       transform="matrix(0.13333333,0,0,-0.13333333,0,450.66667)" />
    <path
       id="path84"
       d="m 3080,460 v 40"
       style="fill:none;stroke:#000000;stroke-width:10;stroke-linecap:butt;stroke-linejoin:miter;stroke-miterlimit:10;stroke-dasharray:none;stroke-opacity:1"
       transform="matrix(0.13333333,0,0,-0.13333333,0,450.66667)" />
    <path
       id="path85"
       d="M 3080,3080 V 500"
       style="fill:none;stroke:#c0c0c0;stroke-width:10;stroke-linecap:butt;stroke-linejoin:miter;stroke-miterlimit:10;stroke-dasharray:none;stroke-opacity:1"
       transform="matrix(0.13333333,0,0,-0.13333333,0,450.66667)" />
    <path
       id="path86"
       d="m 3088.75,260 v 20.625 h -37.19 v 9.688 l 39.22,55.625 h 8.6 v -55.625 h 11.56 v -9.688 h -11.56 V 260 Z m 0,30.313 v 38.593 l -26.87,-38.593 z"
       style="fill:#000000;fill-opacity:1;fill-rule:nonzero;stroke:none"
       transform="matrix(0.13333333,0,0,-0.13333333,0,450.66667)" />
    <path
       id="path87"
       d="m 3350,3130 v -50"
       style="fill:none;stroke:#000000;stroke-width:10;stroke-linecap:butt;stroke-linejoin:miter;stroke-miterlimit:10;stroke-dasharray:none;stroke-opacity:1"
       transform="matrix(0.13333333,0,0,-0.13333333,0,450.66667)" />
    <path
       id="path88"
       d="m 3350,460 v 40"
       style="fill:none;stroke:#000000;stroke-width:10;stroke-linecap:butt;stroke-linejoin:miter;stroke-miterlimit:10;stroke-dasharray:none;stroke-opacity:1"
       transform="matrix(0.13333333,0,0,-0.13333333,0,450.66667)" />
    <path
       id="path89"
       d="M 3350,3080 V 500"
       style="fill:none;stroke:#c0c0c0;stroke-width:10;stroke-linecap:butt;stroke-linejoin:miter;stroke-miterlimit:10;stroke-dasharray:none;stroke-opacity:1"
       transform="matrix(0.13333333,0,0,-0.13333333,0,450.66667)" />
    <path
       id="path90"
       d="m 3325,282.5 11.09,0.938 c 0.84,-5.418 2.71,-9.481 5.63,-12.188 3.02,-2.707 6.67,-4.062 10.94,-4.062 5,0 9.27,1.925 12.81,5.781 3.54,3.855 5.31,8.906 5.31,15.156 0,6.043 -1.72,10.781 -5.15,14.219 -3.34,3.543 -7.77,5.312 -13.29,5.312 -3.33,0 -6.4,-0.781 -9.21,-2.343 -2.71,-1.563 -4.85,-3.543 -6.41,-5.938 l -9.84,1.25 8.28,44.063 h 42.81 v -10 h -34.38 l -4.53,-23.125 c 5.11,3.644 10.47,5.468 16.1,5.468 7.5,0 13.8,-2.605 18.9,-7.812 5.21,-5.207 7.82,-11.926 7.82,-20.156 0,-7.708 -2.24,-14.426 -6.72,-20.157 -5.52,-6.875 -13.02,-10.312 -22.5,-10.312 -7.82,0 -14.22,2.187 -19.22,6.562 -4.9,4.375 -7.71,10.157 -8.44,17.344"
       style="fill:#000000;fill-opacity:1;fill-rule:nonzero;stroke:none"
       transform="matrix(0.13333333,0,0,-0.13333333,0,450.66667)" />
    <path
       id="path91"
       d="m 2000.94,130 22.65,32.344 -20.93,29.844 h 13.12 l 9.53,-14.532 c 1.77,-2.812 3.23,-5.156 4.38,-7.031 1.67,2.605 3.23,4.895 4.69,6.875 l 10.46,14.688 h 12.66 L 2035.94,162.969 2059.06,130 h -12.81 l -12.81,19.375 -3.44,5.156 L 2013.59,130 h -12.65"
       style="fill:#000000;fill-opacity:1;fill-rule:nonzero;stroke:none"
       transform="matrix(0.13333333,0,0,-0.13333333,0,450.66667)" />
    <path
       id="path92"
       d="m 236.906,1774.5 -9.843,-1.25 c 0.625,2.29 0.937,4.32 0.937,6.09 0,2.3 -0.418,4.12 -1.25,5.47 -0.73,1.46 -1.77,2.66 -3.125,3.6 -1.145,0.62 -3.801,1.72 -7.969,3.28 -0.519,0.1 -1.355,0.42 -2.5,0.94 l -62.343,-23.75 v 11.4 l 35.937,12.97 c 4.582,1.67 9.426,3.18 14.531,4.53 -4.894,1.25 -9.636,2.71 -14.218,4.38 l -36.25,13.28 v 10.47 l 63.281,-23.6 c 6.769,-2.6 11.457,-4.58 14.062,-5.93 3.543,-1.88 6.094,-4.07 7.657,-6.57 1.667,-2.39 2.5,-5.26 2.5,-8.59 0,-1.98 -0.469,-4.22 -1.407,-6.72"
       style="fill:#000000;fill-opacity:1;fill-rule:nonzero;stroke:none"
       transform="matrix(0.13333333,0,0,-0.13333333,0,450.66667)" />
    <path
       id="path93"
       d="M 450,3130 H 3580 V 460 H 450 Z"
       style="fill:none;stroke:#000000;stroke-width:10;stroke-linecap:square;stroke-linejoin:miter;stroke-miterlimit:10;stroke-dasharray:none;stroke-opacity:1"
       transform="matrix(0.13333333,0,0,-0.13333333,0,450.66667)" />
    <path
       id="path94"
       d="m 2010,1120 h 270"
       style="fill:none;stroke:#00ff00;stroke-width:10;stroke-linecap:butt;stroke-linejoin:miter;stroke-miterlimit:10;stroke-dasharray:none;stroke-opacity:1"
       transform="matrix(0.13333333,0,0,-0.13333333,0,450.66667)"
       clip-path="url(#clipPath95)" />
    <path
       id="path96"
       d="m 2280,1120 -140,230"
       style="fill:none;stroke:#000000;stroke-width:10;stroke-linecap:butt;stroke-linejoin:miter;stroke-miterlimit:10;stroke-dasharray:none;stroke-opacity:1"
       transform="matrix(0.13333333,0,0,-0.13333333,0,450.66667)"
       clip-path="url(#clipPath97)" />
    <path
       id="path98"
       d="m 2320,1120 c 0,-22.09 -17.91,-40 -40,-40 -22.09,0 -40,17.91 -40,40 0,22.09 17.91,40 40,40 22.09,0 40,-17.91 40,-40"
       style="fill:#ff0000;fill-opacity:1;fill-rule:nonzero;stroke:none"
       transform="matrix(0.13333333,0,0,-0.13333333,0,450.66667)"
       clip-path="url(#clipPath99)" />
    <path
       id="path100"
       d="m 2010,1120 130,230"
       style="fill:none;stroke:#00ff00;stroke-width:10;stroke-linecap:butt;stroke-linejoin:miter;stroke-miterlimit:10;stroke-dasharray:none;stroke-opacity:1"
       transform="matrix(0.13333333,0,0,-0.13333333,0,450.66667)"
       clip-path="url(#clipPath101)" />
    <path
       id="path102"
       d="M 2140,1350 H 1880"
       style="fill:none;stroke:#000000;stroke-width:10;stroke-linecap:butt;stroke-linejoin:miter;stroke-miterlimit:10;stroke-dasharray:none;stroke-opacity:1"
       transform="matrix(0.13333333,0,0,-0.13333333,0,450.66667)"
       clip-path="url(#clipPath103)" />
    <path
       id="path104"
       d="m 2180,1350 c 0,-22.09 -17.91,-40 -40,-40 -22.09,0 -40,17.91 -40,40 0,22.09 17.91,40 40,40 22.09,0 40,-17.91 40,-40"
       style="fill:#ff0000;fill-opacity:1;fill-rule:nonzero;stroke:none"
       transform="matrix(0.13333333,0,0,-0.13333333,0,450.66667)"
       clip-path="url(#clipPath105)" />
    <path
       id="path106"
       d="m 2010,1120 -130,230"
       style="fill:none;stroke:#00ff00;stroke-width:10;stroke-linecap:butt;stroke-linejoin:miter;stroke-miterlimit:10;stroke-dasharray:none;stroke-opacity:1"
       transform="matrix(0.13333333,0,0,-0.13333333,0,450.66667)"
       clip-path="url(#clipPath107)" />
    <path
       id="path108"
       d="M 1880,1350 1740,1120"
       style="fill:none;stroke:#000000;stroke-width:10;stroke-linecap:butt;stroke-linejoin:miter;stroke-miterlimit:10;stroke-dasharray:none;stroke-opacity:1"
       transform="matrix(0.13333333,0,0,-0.13333333,0,450.66667)"
       clip-path="url(#clipPath109)" />
    <path
       id="path110"
       d="m 1920,1350 c 0,-22.09 -17.91,-40 -40,-40 -22.09,0 -40,17.91 -40,40 0,22.09 17.91,40 40,40 22.09,0 40,-17.91 40,-40"
       style="fill:#ff0000;fill-opacity:1;fill-rule:nonzero;stroke:none"
       transform="matrix(0.13333333,0,0,-0.13333333,0,450.66667)"
       clip-path="url(#clipPath111)" />
    <path
       id="path112"
       d="M 2010,1120 H 1740"
       style="fill:none;stroke:#00ff00;stroke-width:10;stroke-linecap:butt;stroke-linejoin:miter;stroke-miterlimit:10;stroke-dasharray:none;stroke-opacity:1"
       transform="matrix(0.13333333,0,0,-0.13333333,0,450.66667)"
       clip-path="url(#clipPath113)" />
    <path
       id="path114"
       d="m 1740,1120 140,-80"
       style="fill:none;stroke:#000000;stroke-width:10;stroke-linecap:butt;stroke-linejoin:miter;stroke-miterlimit:10;stroke-dasharray:none;stroke-opacity:1"
       transform="matrix(0.13333333,0,0,-0.13333333,0,450.66667)"
       clip-path="url(#clipPath115)" />
    <path
       id="path116"
       d="m 1780,1120 c 0,-22.09 -17.91,-40 -40,-40 -22.09,0 -40,17.91 -40,40 0,22.09 17.91,40 40,40 22.09,0 40,-17.91 40,-40"
       style="fill:#ff0000;fill-opacity:1;fill-rule:nonzero;stroke:none"
       transform="matrix(0.13333333,0,0,-0.13333333,0,450.66667)"
       clip-path="url(#clipPath117)" />
    <path
       id="path118"
       d="m 2010,1120 -130,-80"
       style="fill:none;stroke:#00ff00;stroke-width:10;stroke-linecap:butt;stroke-linejoin:miter;stroke-miterlimit:10;stroke-dasharray:none;stroke-opacity:1"
       transform="matrix(0.13333333,0,0,-0.13333333,0,450.66667)"
       clip-path="url(#clipPath119)" />
    <path
       id="path120"
       d="m 1880,1040 h 260"
       style="fill:none;stroke:#000000;stroke-width:10;stroke-linecap:butt;stroke-linejoin:miter;stroke-miterlimit:10;stroke-dasharray:none;stroke-opacity:1"
       transform="matrix(0.13333333,0,0,-0.13333333,0,450.66667)"
       clip-path="url(#clipPath121)" />
    <path
       id="path122"
       d="m 1920,1040 c 0,-22.09 -17.91,-40 -40,-40 -22.09,0 -40,17.91 -40,40 0,22.09 17.91,40 40,40 22.09,0 40,-17.91 40,-40"
       style="fill:#ff0000;fill-opacity:1;fill-rule:nonzero;stroke:none"
       transform="matrix(0.13333333,0,0,-0.13333333,0,450.66667)"
       clip-path="url(#clipPath123)" />
    <path
       id="path124"
       d="m 2010,1120 130,-80"
       style="fill:none;stroke:#00ff00;stroke-width:10;stroke-linecap:butt;stroke-linejoin:miter;stroke-miterlimit:10;stroke-dasharray:none;stroke-opacity:1"
       transform="matrix(0.13333333,0,0,-0.13333333,0,450.66667)"
       clip-path="url(#clipPath125)" />
    <path
       id="path126"
       d="m 2140,1040 140,80"
       style="fill:none;stroke:#000000;stroke-width:10;stroke-linecap:butt;stroke-linejoin:miter;stroke-miterlimit:10;stroke-dasharray:none;stroke-opacity:1"
       transform="matrix(0.13333333,0,0,-0.13333333,0,450.66667)"
       clip-path="url(#clipPath127)" />
    <path
       id="path128"
       d="m 2180,1040 c 0,-22.09 -17.91,-40 -40,-40 -22.09,0 -40,17.91 -40,40 0,22.09 17.91,40 40,40 22.09,0 40,-17.91 40,-40"
       style="fill:#ff0000;fill-opacity:1;fill-rule:nonzero;stroke:none"
       transform="matrix(0.13333333,0,0,-0.13333333,0,450.66667)"
       clip-path="url(#clipPath129)" />
    <path
       id="path130"
       d="m 2050,1120 c 0,-22.09 -17.91,-40 -40,-40 -22.09,0 -40,17.91 -40,40 0,22.09 17.91,40 40,40 22.09,0 40,-17.91 40,-40"
       style="fill:#0000ff;fill-opacity:1;fill-rule:nonzero;stroke:none"
       transform="matrix(0.13333333,0,0,-0.13333333,0,450.66667)"
       clip-path="url(#clipPath131)" />
  </g>
</svg>
